<svg width="117" height="30" viewBox="0 0 117 30" fill="none" xmlns="http://www.w3.org/2000/svg">
<g id="Group 2739">
<g id="xseed.AI">
<path id="Vector" d="M91.8291 29.1272C91.4558 29.1272 91.1158 29.0372 90.8091 28.8572C90.5091 28.6772 90.2691 28.4372 90.0891 28.1372C89.9158 27.8305 89.8291 27.4939 89.8291 27.1272C89.8291 26.7539 89.9158 26.4172 90.0891 26.1172C90.2691 25.8172 90.5124 25.5772 90.8191 25.3972C91.1258 25.2172 91.4624 25.1272 91.8291 25.1272C92.2024 25.1272 92.5391 25.2172 92.8391 25.3972C93.1391 25.5772 93.3791 25.8172 93.5591 26.1172C93.7391 26.4172 93.8291 26.7539 93.8291 27.1272C93.8291 27.4939 93.7391 27.8305 93.5591 28.1372C93.3791 28.4372 93.1391 28.6772 92.8391 28.8572C92.5391 29.0372 92.2024 29.1272 91.8291 29.1272Z" fill="#E30016"/>
<path id="Union" fill-rule="evenodd" clip-rule="evenodd" d="M76.9762 28.9111C75.4932 28.9111 74.1382 28.543 72.9113 27.8069C71.695 27.06 70.7241 26.0305 69.9986 24.7182C69.2731 23.4059 68.9104 21.9016 68.9104 20.2052C68.9104 18.5408 69.2625 17.0578 69.9666 15.7562C70.6708 14.4439 71.6363 13.409 72.8633 12.6515C74.1009 11.8833 75.5145 11.4992 77.1042 11.4992C78.2565 11.4992 79.3234 11.7233 80.3049 12.1714C81.2865 12.6088 82.1027 13.2223 82.7535 14.0118V0.872864H87.6666V28.399H82.7535V26.2385C82.028 27.0814 81.1691 27.7375 80.1769 28.207C79.1847 28.6764 78.1178 28.9111 76.9762 28.9111ZM78.4485 24.7342C79.3127 24.7342 80.0756 24.5421 80.737 24.1581C81.3985 23.7633 81.916 23.2245 82.2894 22.5417C82.6735 21.8589 82.8655 21.0854 82.8655 20.2212C82.8655 19.3463 82.6735 18.5675 82.2894 17.8847C81.916 17.2018 81.3985 16.6631 80.737 16.2683C80.0756 15.8735 79.3181 15.6762 78.4645 15.6762C77.6217 15.6762 76.8695 15.8735 76.208 16.2683C75.5572 16.6631 75.0398 17.2072 74.6557 17.9007C74.2716 18.5835 74.0796 19.3623 74.0796 20.2372C74.0796 21.1014 74.2663 21.8749 74.6397 22.5577C75.0131 23.2299 75.5305 23.7633 76.192 24.1581C76.8535 24.5421 77.6057 24.7342 78.4485 24.7342ZM102.019 9.32809L94.4258 28.399H97.6736L99.5576 23.429H107.302L109.174 28.399H112.433L104.828 9.32809H102.019ZM106.273 20.7707H100.586L103.418 13.3966L106.273 20.7707ZM113.972 9.32809V28.399H117V9.32809H113.972ZM55.1951 27.7749C56.6034 28.5324 58.1931 28.9111 59.9641 28.9111C61.6925 28.9111 63.2609 28.5377 64.6692 27.7909C66.0775 27.044 67.1657 26.0091 67.9339 24.6862L64.3971 22.9098C63.789 23.6353 63.1542 24.1634 62.4927 24.4941C61.8419 24.8249 61.0897 24.9902 60.2362 24.9902C59.3293 24.9902 58.5345 24.8195 57.8516 24.4781C57.1688 24.1261 56.6354 23.6406 56.2513 23.0218C55.8779 22.403 55.6912 21.6775 55.6912 20.8453H68.254C68.286 20.5679 68.302 20.3812 68.302 20.2852C68.3126 20.1785 68.318 20.0558 68.318 19.9171C68.318 18.2421 67.9552 16.7751 67.2297 15.5161C66.5149 14.2572 65.512 13.2756 64.2211 12.5715C62.9408 11.8567 61.4471 11.4992 59.7401 11.4992C58.4598 11.4992 57.2702 11.7233 56.1713 12.1714C55.0724 12.6088 54.1068 13.2276 53.2746 14.0278C52.4424 14.8173 51.7916 15.7402 51.3222 16.7964C50.8634 17.8527 50.634 18.9889 50.634 20.2052C50.634 21.8589 51.0448 23.3419 51.8663 24.6542C52.6878 25.9665 53.7974 27.0067 55.1951 27.7749ZM63.4849 18.1247H55.8672C55.9419 17.4952 56.1446 16.9511 56.4753 16.4924C56.8061 16.0336 57.2435 15.6815 57.7876 15.4361C58.3318 15.1907 58.9612 15.068 59.6761 15.068C60.3482 15.068 60.951 15.1907 61.4845 15.4361C62.0179 15.6815 62.4553 16.0336 62.7968 16.4924C63.1488 16.9511 63.3782 17.4952 63.4849 18.1247ZM41.8638 28.9111C40.0927 28.9111 38.503 28.5324 37.0947 27.7749C35.6971 27.0067 34.5875 25.9665 33.766 24.6542C32.9445 23.3419 32.5337 21.8589 32.5337 20.2052C32.5337 18.9889 32.7631 17.8527 33.2218 16.7964C33.6913 15.7402 34.3421 14.8173 35.1743 14.0278C36.0065 13.2276 36.972 12.6088 38.0709 12.1714C39.1698 11.7233 40.3594 11.4992 41.6397 11.4992C43.3468 11.4992 44.8404 11.8567 46.1207 12.5715C47.4117 13.2756 48.4146 14.2572 49.1294 15.5161C49.8549 16.7751 50.2176 18.2421 50.2176 19.9171C50.2176 20.0558 50.2123 20.1785 50.2016 20.2852C50.2016 20.3812 50.1856 20.5679 50.1536 20.8453H37.5908C37.5908 21.6775 37.7775 22.403 38.1509 23.0218C38.535 23.6406 39.0685 24.1261 39.7513 24.4781C40.4341 24.8195 41.229 24.9902 42.1358 24.9902C42.9894 24.9902 43.7415 24.8249 44.3923 24.4941C45.0538 24.1634 45.6886 23.6353 46.2968 22.9098L49.8336 24.6862C49.0654 26.0091 47.9771 27.044 46.5688 27.7909C45.1605 28.5377 43.5922 28.9111 41.8638 28.9111ZM45.3846 18.1247C45.2779 17.4952 45.0485 16.9511 44.6964 16.4924C44.355 16.0336 43.9176 15.6815 43.3841 15.4361C42.8507 15.1907 42.2479 15.068 41.5757 15.068C40.8609 15.068 40.2314 15.1907 39.6873 15.4361C39.1432 15.6815 38.7057 16.0336 38.375 16.4924C38.0443 16.9511 37.8415 17.4952 37.7669 18.1247H45.3846ZM21.0844 28.255C22.1833 28.6924 23.4262 28.9111 24.8132 28.9111C26.3175 28.9111 27.6032 28.6924 28.6701 28.255C29.7476 27.8176 30.5692 27.1881 31.1346 26.3666C31.7108 25.5344 31.9988 24.5262 31.9988 23.3419C31.9988 22.371 31.8174 21.5975 31.4547 21.0214C31.0919 20.4346 30.5905 19.9598 29.9504 19.5971C29.3209 19.2343 28.5954 18.9036 27.7739 18.6048C27.2724 18.4235 26.7443 18.2261 26.1895 18.0127C25.6454 17.7886 25.1813 17.5379 24.7972 17.2605C24.4238 16.9725 24.2371 16.6364 24.2371 16.2523C24.2371 15.8469 24.4185 15.5108 24.7812 15.2441C25.1439 14.9774 25.6294 14.844 26.2375 14.844C27.3258 14.844 28.558 15.2868 29.9344 16.1723L31.6147 13.0196C30.6012 12.5181 29.6463 12.1447 28.7501 11.8993C27.8646 11.6539 27.0164 11.5312 26.2055 11.5312C24.9039 11.5312 23.7516 11.75 22.7487 12.1874C21.7565 12.6248 20.9777 13.233 20.4122 14.0118C19.8468 14.78 19.564 15.6708 19.564 16.6844C19.564 17.5166 19.7507 18.2047 20.1242 18.7489C20.5082 19.293 21.0044 19.7411 21.6125 20.0932C22.2206 20.4452 22.8554 20.76 23.5169 21.0374C24.2958 21.3574 24.9306 21.6242 25.4213 21.8375C25.9121 22.0403 26.2749 22.2643 26.5096 22.5097C26.755 22.7551 26.8777 23.0912 26.8777 23.5179C26.8777 23.8913 26.787 24.2114 26.6056 24.4781C26.4349 24.7342 26.1949 24.9316 25.8854 25.0703C25.5867 25.209 25.2293 25.2783 24.8132 25.2783C24.0664 25.2783 23.3195 25.0863 22.5727 24.7022C21.8259 24.3181 21.111 23.7633 20.4282 23.0378L18.3638 26.3346C19.0893 27.1774 19.9961 27.8176 21.0844 28.255ZM0 28.399L6.99356 19.8371L0.992222 12.0114H6.68949L9.98623 16.4123L13.283 12.0114H18.9802L12.9789 19.8371L19.9725 28.399H14.0831L9.98623 23.2139L5.88932 28.399H0ZM9.92427 10.6173C11.8884 10.6173 13.4806 9.02503 13.4806 7.06091C13.4806 5.09679 11.8884 3.50456 9.92427 3.50456C7.96015 3.50456 6.36792 5.09679 6.36792 7.06091C6.36792 9.02503 7.96015 10.6173 9.92427 10.6173Z" fill="url(#paint0_linear_2309_20684)"/>
</g>
</g>
<defs>
<linearGradient id="paint0_linear_2309_20684" x1="7.5" y1="28.892" x2="137.5" y2="28.892" gradientUnits="userSpaceOnUse">
<stop stop-color="#0B82F1"/>
<stop offset="1" stop-color="#80BBF6"/>
</linearGradient>
</defs>
</svg>
